<svg width="32" height="32" viewBox="0 0 32 32" fill="none" xmlns="http://www.w3.org/2000/svg">
<g clip-path="url(#clip0_64_731)">
<path d="M31.788 15.1806C30.4979 12.106 28.9627 9.59851 27.1823 7.6581L25.315 9.77038C26.8377 11.4164 28.164 13.5698 29.3108 16.2517C26.2574 23.4006 21.9233 26.7965 16 26.7965C14.222 26.7965 12.5844 26.4868 11.087 25.8674L9.0638 28.1561C11.1434 29.2424 13.4555 29.7855 16 29.7855C23.0536 29.7855 28.3163 25.6299 31.788 17.3186C31.9276 16.9844 32 16.6193 32 16.2496C32 15.8799 31.9276 15.5149 31.788 15.1806V15.1806ZM29.4551 1.86926L27.8906 0.097406C27.8633 0.0665268 27.8309 0.0420302 27.7953 0.0253165C27.7596 0.00860285 27.7214 0 27.6829 0C27.6443 0 27.6061 0.00860285 27.5704 0.0253165C27.5348 0.0420302 27.5024 0.0665268 27.4751 0.097406L23.4613 4.63581C21.2484 3.35716 18.7612 2.71783 16 2.71783C8.94637 2.71783 3.68368 6.87347 0.211921 15.1848C0.0723735 15.519 0 15.8841 0 16.2538C0 16.6234 0.0723735 16.9885 0.211921 17.3228C1.59891 20.6274 3.26873 23.2761 5.22138 25.2691L1.33786 29.661C1.28284 29.7233 1.25193 29.8077 1.25193 29.8958C1.25193 29.9838 1.28284 30.0683 1.33786 30.1305L2.90455 31.9028C2.95961 31.965 3.03425 32 3.11209 32C3.18992 32 3.26457 31.965 3.31962 31.9028L29.4551 2.33921C29.4824 2.30837 29.504 2.27174 29.5188 2.23142C29.5336 2.1911 29.5412 2.14788 29.5412 2.10424C29.5412 2.06059 29.5336 2.01737 29.5188 1.97705C29.504 1.93674 29.4824 1.90011 29.4551 1.86926ZM2.68913 16.2517C5.74618 9.10282 10.0804 5.7069 16 5.7069C18.0016 5.7069 19.8215 6.09548 21.4726 6.88551L18.8926 9.804C17.6708 9.06655 16.2718 8.79285 14.902 9.0233C13.5321 9.25375 12.2641 9.97612 11.2848 11.0839C10.3056 12.1916 9.66698 13.6261 9.46326 15.1756C9.25955 16.7252 9.50149 18.3078 10.1534 19.6899L7.09195 23.1531C5.39754 21.4614 3.93691 19.1694 2.68913 16.2517ZM11.7429 16.2517C11.7435 15.5196 11.8968 14.7981 12.1903 14.1456C12.4837 13.4932 12.9091 12.9282 13.4319 12.4967C13.9546 12.0652 14.56 11.7792 15.1988 11.6621C15.8376 11.5449 16.4918 11.5999 17.1083 11.8225L11.9377 17.6715C11.8081 17.2125 11.7424 16.7335 11.7429 16.2517V16.2517Z" fill="white"/>
<path d="M14.902 21.0554C14.7428 21.0554 14.5859 21.048 14.4304 21.0337L12 23.4641C13.4618 24.0239 15.0544 24.1483 16.5854 23.8223C18.1163 23.4962 19.5201 22.7337 20.6269 21.6269C21.7337 20.5201 22.4962 19.1163 22.8223 17.5854C23.1483 16.0544 23.0239 14.4618 22.4641 13L20.0337 15.4304C20.048 15.5859 20.0554 15.7428 20.0554 15.902C20.0557 16.5788 19.9227 17.2491 19.6638 17.8745C19.405 18.4999 19.0254 19.0682 18.5468 19.5468C18.0682 20.0254 17.4999 20.405 16.8745 20.6638C16.2491 20.9227 15.5788 21.0557 14.902 21.0554V21.0554Z" fill="white"/>
</g>
<defs>
<clipPath id="clip0_64_731">
<rect width="32" height="32" fill="white"/>
</clipPath>
</defs>
</svg>
