<svg width="32" height="32" viewBox="0 0 32 32" fill="none" xmlns="http://www.w3.org/2000/svg">
<path fill-rule="evenodd" clip-rule="evenodd" d="M15.9993 5.3335C13.0527 5.3335 10.666 7.72016 10.666 10.6668C10.666 13.6135 13.0527 16.0002 15.9993 16.0002C18.946 16.0002 21.3327 13.6135 21.3327 10.6668C21.3327 7.72016 18.946 5.3335 15.9993 5.3335ZM18.6665 10.6668C18.6665 9.20017 17.4665 8.00017 15.9998 8.00017C14.5331 8.00017 13.3331 9.20017 13.3331 10.6668C13.3331 12.1335 14.5331 13.3335 15.9998 13.3335C17.4665 13.3335 18.6665 12.1335 18.6665 10.6668ZM23.9995 24.0002C23.7328 23.0535 19.5995 21.3335 15.9995 21.3335C12.4128 21.3335 8.30618 23.0402 7.99951 24.0002H23.9995ZM5.33301 24.0002C5.33301 20.4535 12.4397 18.6668 15.9997 18.6668C19.5597 18.6668 26.6663 20.4535 26.6663 24.0002V26.6668H5.33301V24.0002Z" fill="white"/>
</svg>
