<svg width="32" height="32" viewBox="0 0 32 32" fill="none" xmlns="http://www.w3.org/2000/svg">
<g clip-path="url(#clip0_14_754)">
<path d="M16 7.61905C21.5127 7.61905 26.4291 10.8648 28.8291 16C26.4291 21.1352 21.5273 24.381 16 24.381C10.4727 24.381 5.57091 21.1352 3.17091 16C5.57091 10.8648 10.4873 7.61905 16 7.61905ZM16 4.57143C8.72727 4.57143 2.51636 9.31047 0 16C2.51636 22.6895 8.72727 27.4286 16 27.4286C23.2727 27.4286 29.4836 22.6895 32 16C29.4836 9.31047 23.2727 4.57143 16 4.57143ZM16 12.1905C18.0073 12.1905 19.6364 13.8971 19.6364 16C19.6364 18.1029 18.0073 19.8095 16 19.8095C13.9927 19.8095 12.3636 18.1029 12.3636 16C12.3636 13.8971 13.9927 12.1905 16 12.1905ZM16 9.14286C12.3927 9.14286 9.45455 12.221 9.45455 16C9.45455 19.779 12.3927 22.8571 16 22.8571C19.6073 22.8571 22.5455 19.779 22.5455 16C22.5455 12.221 19.6073 9.14286 16 9.14286Z" fill="white"/>
</g>
<defs>
<clipPath id="clip0_14_754">
<rect width="32" height="32" fill="white"/>
</clipPath>
</defs>
</svg>
