<svg width="31" height="32" viewBox="0 0 31 32" fill="none" xmlns="http://www.w3.org/2000/svg">
<path d="M21.9408 19.924H20.5858L20.1055 19.4542C21.7864 17.4704 22.7985 14.895 22.7985 12.0934C22.7985 5.84628 17.807 0.782471 11.6492 0.782471C5.49142 0.782471 0.5 5.84628 0.5 12.0934C0.5 18.3405 5.49142 23.4043 11.6492 23.4043C14.4108 23.4043 16.9494 22.3776 18.9048 20.6723L19.3679 21.1595V22.5342L27.9443 31.2175L30.5 28.6247L21.9408 19.924ZM11.6492 19.924C7.37822 19.924 3.93053 16.4263 3.93053 12.0934C3.93053 7.76043 7.37822 4.26275 11.6492 4.26275C15.9202 4.26275 19.3679 7.76043 19.3679 12.0934C19.3679 16.4263 15.9202 19.924 11.6492 19.924Z" fill="white"/>
</svg>
